<svg width="64" height="64" viewBox="0 0 64 64" fill="none" xmlns="http://www.w3.org/2000/svg">
<path fill-rule="evenodd" clip-rule="evenodd" d="M52.9719 0.878867C51.8003 -0.292706 49.9008 -0.292704 48.7293 0.878868L31.7313 17.8769L14.7333 0.878868C13.5617 -0.292705 11.6622 -0.292704 10.4906 0.878869L0.878685 10.4908C-0.292888 11.6624 -0.292886 13.5619 0.878687 14.7334L17.8767 31.7314L0.878685 48.7294C-0.292888 49.901 -0.292887 51.8005 0.878685 52.9721L10.4906 62.584C11.6622 63.7556 13.5617 63.7556 14.7333 62.584L31.7313 45.586L48.7293 62.584C49.9008 63.7556 51.8003 63.7556 52.9719 62.584L62.5838 52.9721C63.7554 51.8005 63.7554 49.901 62.5838 48.7294L45.5858 31.7314L62.5838 14.7334C63.7554 13.5619 63.7554 11.6624 62.5838 10.4908L52.9719 0.878867Z" fill="#1F3641"/>
</svg>
